<?xml version="1.0" encoding="utf-8"?>
<!-- Generator: Adobe Illustrator 24.2.3, SVG Export Plug-In . SVG Version: 6.00 Build 0)  -->
<svg version="1.1" id="Layer_1" xmlns="http://www.w3.org/2000/svg" xmlns:xlink="http://www.w3.org/1999/xlink" x="0px" y="0px"
	 width="80px" height="80px" viewBox="0 0 80 80" style="enable-background:new 0 0 80 80;" xml:space="preserve">
<style type="text/css">
	.st0{fill:#F22F46;}
	.st1{fill:#FFFFFF;}
</style>
<path class="st0" d="M50,80H30C13.4,80,0,66.6,0,50V30C0,13.4,13.4,0,30,0h20c16.6,0,30,13.4,30,30v20C80,66.6,66.6,80,50,80z"/>
<g>
	<path class="st1" d="M58.8,38.7H21.2c-0.7,0-1.2,0.6-1.2,1.2s0.6,1.2,1.2,1.2h37.5c0.7,0,1.2-0.6,1.2-1.2S59.4,38.7,58.8,38.7z"/>
	<path class="st1" d="M58.8,46.2h-20c-0.3,0-0.6,0.1-0.8,0.3L30,53.4l0-6c0-0.3-0.1-0.7-0.4-0.9c-0.2-0.2-0.6-0.4-0.9-0.4h-7.6
		c-0.7,0-1.2,0.6-1.2,1.2s0.6,1.2,1.2,1.2h6.3l0,5.4c0,0.9,0.5,1.6,1.3,2c0.3,0.1,0.6,0.2,0.9,0.2c0.5,0,1-0.2,1.4-0.5l8.1-7.1h19.5
		c0.7,0,1.2-0.6,1.2-1.2S59.4,46.2,58.8,46.2z"/>
	<path class="st1" d="M58.8,31.2H21.2c-0.7,0-1.2,0.6-1.2,1.2s0.6,1.2,1.2,1.2h37.5c0.7,0,1.2-0.6,1.2-1.2S59.4,31.2,58.8,31.2z"/>
	<path class="st1" d="M21.2,26.2h37.5c0.7,0,1.2-0.6,1.2-1.2s-0.6-1.2-1.2-1.2H21.2c-0.7,0-1.2,0.6-1.2,1.2S20.6,26.2,21.2,26.2z"/>
</g>
</svg>
