<svg id="Rounder_Expanded_White" data-name="Rounder Expanded White" xmlns="http://www.w3.org/2000/svg" viewBox="0 0 32 32"><defs><style>.cls-1{fill:#fff;}</style></defs><title>sync-white</title><path class="cls-1" d="M10,17a1,1,0,0,1-1-1,7,7,0,0,1,7-7,1,1,0,0,1,0,2,5,5,0,0,0-5,5A1,1,0,0,1,10,17Z"/><path class="cls-1" d="M16,23a1,1,0,0,1,0-2,5,5,0,0,0,5-5,1,1,0,0,1,2,0A7,7,0,0,1,16,23Z"/><path class="cls-1" d="M8.89,3.91a12.51,12.51,0,0,1,3.67-1.5A14.12,14.12,0,0,1,23.08,3.92a1,1,0,0,0,1.23-.14h0a1,1,0,0,0-.21-1.57A16.14,16.14,0,0,0,10.71.86a13.44,13.44,0,0,0-2,.86A16.11,16.11,0,0,0,0,16a1,1,0,0,0,2,0A14.06,14.06,0,0,1,8.89,3.91Z"/><polygon class="cls-1" points="26.75 4.17 26.74 4.17 25.33 5.58 25.33 5.59 22.03 8.89 30.1 8.89 30.1 0.81 26.75 4.17"/><path class="cls-1" d="M31,15a1,1,0,0,0-1,1,13.37,13.37,0,0,1-.61,4.46A14.26,14.26,0,0,1,16,30a13.9,13.9,0,0,1-7.08-1.92,1,1,0,0,0-1.23.14h0a1,1,0,0,0,.21,1.57,16.14,16.14,0,0,0,13.39,1.35,13.44,13.44,0,0,0,2-.86A16.11,16.11,0,0,0,32,16,1,1,0,0,0,31,15Z"/><polygon class="cls-1" points="9.97 23.11 1.9 23.11 1.9 31.18 5.25 27.83 5.26 27.83 6.67 26.42 6.67 26.41 9.97 23.11"/></svg>